{"title":"Fer Mamla Gadbad Gadbad (2013) DVDRip - XviD - 1CD - Esub - [DDR","uid":8910716,"size":729116076,"categoryP":"video","categoryS":"movies","magnet":"?xt=urn:btih:112e23e3ab55ebb97e8a636343ff6735a8515483&amp;dn=Fer+Mamla+Gadbad+Gadbad+%282013%29+DVDRip+-+XviD+-+1CD+-+Esub+-+%5BDDR&amp;tr=udp%3A%2F%2Ftracker.openbittorrent.com%3A80&amp;tr=udp%3A%2F%2Fopen.demonii.com%3A1337&amp;tr=udp%3A%2F%2Ftracker.coppersurfer.tk%3A6969&amp;tr=udp%3A%2F%2Fexodus.desync.com%3A6969","seeders":1,"leechers":1,"uploader":"SaM","files":-1,"time":1379013453,"description":"Fer Mamla Gadbad Gadbad (2013) DVDRip - XviD - 1CD - Esub - [DDR-Exclusive]\n\n\n---------------------------------------------------------------------------------------------------------------------------------------\nMovie Info\n---------------------------------------------------------------------------------------------------------------------------------------\n\nMovie Name : Fer Mamla Gadbad Gadbad\nStarring : Roshan Prince, Japji Khaira, Bhanushree Mehra, B. N. Sharma, Rana Ranbir\nDirected : Rimpy Prince\nProducer : A Dashmesh Movies Production\nMovie Release Date : 2013\nRipper : AnMoL\nSource : DVD9 My Own Collection\nAudio : Punjabi\nSubtitle : English\n\n---------------------------------------------------------------------------------------------------------------------------------------\nTech Info\n---------------------------------------------------------------------------------------------------------------------------------------\n\nFormat : AVI\nFormat/Info : Audio Video Interleave\nFile size : 695 MiB\nDuration : 2h 13mn\nOverall bit rate : 729 Kbps\n\nVideo\nCodec ID/Hint : XviD\nDuration : 2h 13mn\nBit rate : 639 Kbps\nWidth : 640 pixels\nHeight : 272 pixels\nDisplay aspect ratio : 2.35:1\nFrame rate : 25.000 fps\nColor space : YUV\nChroma subsampling : 4:2:0\nBit depth : 8 bits\nScan type : Progressive\nCompression mode : Lossy\nBits/(Pixel*Frame) : 0.147\nStream size : 610 MiB (88%)\n\nAudio\nID : 1\nFormat : MPEG Audio\nFormat version : Version 1\nFormat profile : Layer 3\nMode : Joint stereo\nMode extension : MS Stereo\nCodec ID : 55\nCodec ID/Hint : MP3\nDuration : 2h 13mn\nBit rate mode : Constant\nBit rate : 80.0 Kbps\nChannel(s) : 2 channels\nSampling rate : 32.0 KHz\nCompression mode : Lossy\nStream size : 76.3 MiB (11%)\n\n---------------------------------------------------------------------------------------------------------------------------------------\nScreen Shot\n---------------------------------------------------------------------------------------------------------------------------------------\n &lt;a href=&quot;\nhttp://imageshack.us/a/img69/777/bjfh.png&quot; rel=&quot;nofollow&quot; target=&quot;_NEW&quot;&gt;\nhttp://imageshack.us/a/img69/777/bjfh.png&lt;/a&gt; &lt;a href=&quot;\nhttp://imageshack.us/a/img818/5177/y3qa.png&quot; rel=&quot;nofollow&quot; target=&quot;_NEW&quot;&gt;\nhttp://imageshack.us/a/img818/5177/y3qa.png&lt;/a&gt; &lt;a href=&quot;\nhttp://imageshack.us/a/img24/963/ngp7.png&quot; rel=&quot;nofollow&quot; target=&quot;_NEW&quot;&gt;\nhttp://imageshack.us/a/img24/963/ngp7.png&lt;/a&gt; &lt;a href=&quot;\nhttp://imageshack.us/a/img834/976/4pr.png&quot; rel=&quot;nofollow&quot; target=&quot;_NEW&quot;&gt;\nhttp://imageshack.us/a/img834/976/4pr.png&lt;/a&gt; &lt;a href=&quot;\nhttp://imageshack.us/a/img109/8603/9rw1.png&quot; rel=&quot;nofollow&quot; target=&quot;_NEW&quot;&gt;\nhttp://imageshack.us/a/img109/8603/9rw1.png&lt;/a&gt; &lt;a href=&quot;\nhttp://imageshack.us/a/img10/1228/4km1.png&quot; rel=&quot;nofollow&quot; target=&quot;_NEW&quot;&gt;\nhttp://imageshack.us/a/img10/1228/4km1.png&lt;/a&gt; &lt;a href=&quot;\nhttp://imageshack.us/a/img9/1600/qivp.png&quot; rel=&quot;nofollow&quot; target=&quot;_NEW&quot;&gt;\nhttp://imageshack.us/a/img9/1600/qivp.png&lt;/a&gt; &lt;a href=&quot;\nhttp://imageshack.us/a/img14/5463/4plu.png&quot; rel=&quot;nofollow&quot; target=&quot;_NEW&quot;&gt;\nhttp://imageshack.us/a/img14/5463/4plu.png&lt;/a&gt;\n\n","torrent":{"xt":"urn:btih:112e23e3ab55ebb97e8a636343ff6735a8515483","amp;dn":"Fer+Mamla+Gadbad+Gadbad+%282013%29+DVDRip+-+XviD+-+1CD+-+Esub+-+%5BDDR","amp;tr":["udp%3A%2F%2Ftracker.openbittorrent.com%3A80","udp%3A%2F%2Fopen.demonii.com%3A1337","udp%3A%2F%2Ftracker.coppersurfer.tk%3A6969","udp%3A%2F%2Fexodus.desync.com%3A6969"],"infoHash":"112e23e3ab55ebb97e8a636343ff6735a8515483","infoHashBuffer":{"type":"Buffer","data":[17,46,35,227,171,85,235,185,126,138,99,99,67,255,103,53,168,81,84,131]},"announce":[],"urlList":[]}}